REM DIRINDEX 1\2,1\3,1\4,1\5
REM DIRNAME "folder01","folder02","folder03","folder04","folder05"
TITLE ""
FILE "P1Q_t_0268-0277.mp3" MP3
  TRACK 01 AUDIO
    TITLE "2:cjc173_1720"
    INDEX 01 00:00:00
  TRACK 02 AUDIO
    TITLE "0:"
    INDEX 01 00:01:29
  TRACK 03 AUDIO
    TITLE "3:cjc173_1721"
    INDEX 01 00:01:74
  TRACK 04 AUDIO
    TITLE "0:"
    INDEX 01 00:03:26
  TRACK 05 AUDIO
    TITLE "4:cjc173_1722"
    INDEX 01 00:03:48
  TRACK 06 AUDIO
    TITLE "0:"
    INDEX 01 00:07:42
  TRACK 07 AUDIO
    TITLE "5:cjc173_1723"
    INDEX 01 00:07:61
  TRACK 08 AUDIO
    TITLE "0:"
    INDEX 01 00:13:70
  TRACK 09 AUDIO
    TITLE "3:cjc173_1724"
    INDEX 01 00:14:40
  TRACK 10 AUDIO
    TITLE "0:"
    INDEX 01 00:16:03
  TRACK 11 AUDIO
    TITLE "4:cjc173_1725"
    INDEX 01 00:16:23
  TRACK 12 AUDIO
    TITLE "0:"
    INDEX 01 00:18:08
  TRACK 13 AUDIO
    TITLE "5:cjc173_1726"
    INDEX 01 00:18:28
  TRACK 14 AUDIO
    TITLE "0:"
    INDEX 01 00:22:31
  TRACK 15 AUDIO
    TITLE "3:cjc173_1727"
    INDEX 01 00:23:03
  TRACK 16 AUDIO
    TITLE "0:"
    INDEX 01 00:24:32
  TRACK 17 AUDIO
    TITLE "4:cjc173_1728"
    INDEX 01 00:24:54
  TRACK 18 AUDIO
    TITLE "0:"
    INDEX 01 00:27:56
  TRACK 19 AUDIO
    TITLE "5:cjc173_1729"
    INDEX 01 00:28:01
  TRACK 20 AUDIO
    TITLE "0:"
    INDEX 01 00:33:33
  TRACK 21 AUDIO
    TITLE "3:cjc173_1730"
    INDEX 01 00:34:03
  TRACK 22 AUDIO
    TITLE "0:"
    INDEX 01 00:35:07
  TRACK 23 AUDIO
    TITLE "4:cjc173_1731"
    INDEX 01 00:35:30
  TRACK 24 AUDIO
    TITLE "0:"
    INDEX 01 00:37:33
  TRACK 25 AUDIO
    TITLE "5:cjc173_1732"
    INDEX 01 00:37:53
  TRACK 26 AUDIO
    TITLE "0:"
    INDEX 01 00:42:64
  TRACK 27 AUDIO
    TITLE "3:cjc173_1733"
    INDEX 01 00:43:36
  TRACK 28 AUDIO
    TITLE "0:"
    INDEX 01 00:44:60
  TRACK 29 AUDIO
    TITLE "4:cjc173_1734"
    INDEX 01 00:45:03
  TRACK 30 AUDIO
    TITLE "0:"
    INDEX 01 00:47:53
  TRACK 31 AUDIO
    TITLE "5:cjc173_1735"
    INDEX 01 00:47:73
  TRACK 32 AUDIO
    TITLE "0:"
    INDEX 01 00:53:14
  TRACK 33 AUDIO
    TITLE "3:cjc173_1736"
    INDEX 01 00:53:63
  TRACK 34 AUDIO
    TITLE "0:"
    INDEX 01 00:55:13
  TRACK 35 AUDIO
    TITLE "4:cjc173_1737"
    INDEX 01 00:55:35
  TRACK 36 AUDIO
    TITLE "0:"
    INDEX 01 00:57:73
  TRACK 37 AUDIO
    TITLE "5:cjc173_1738"
    INDEX 01 00:58:19
  TRACK 38 AUDIO
    TITLE "0:"
    INDEX 01 01:03:25
  TRACK 39 AUDIO
    TITLE "3:cjc173_1739"
    INDEX 01 01:03:72
  TRACK 40 AUDIO
    TITLE "0:"
    INDEX 01 01:05:25
  TRACK 41 AUDIO
    TITLE "4:cjc173_1740"
    INDEX 01 01:05:47
  TRACK 42 AUDIO
    TITLE "0:"
    INDEX 01 01:08:10
  TRACK 43 AUDIO
    TITLE "5:cjc173_1741"
    INDEX 01 01:08:30
  TRACK 44 AUDIO
    TITLE "0:"
    INDEX 01 01:12:35
  TRACK 45 AUDIO
    TITLE "3:cjc173_1742"
    INDEX 01 01:13:05
  TRACK 46 AUDIO
    TITLE "0:"
    INDEX 01 01:14:18
  TRACK 47 AUDIO
    TITLE "4:cjc173_1743"
    INDEX 01 01:14:38
  TRACK 48 AUDIO
    TITLE "0:"
    INDEX 01 01:17:29
  TRACK 49 AUDIO
    TITLE "5:cjc173_1744"
    INDEX 01 01:17:48
  TRACK 50 AUDIO
    TITLE "0:"
    INDEX 01 01:21:34
  TRACK 51 AUDIO
    TITLE "3:cjc173_1745"
    INDEX 01 01:22:06
  TRACK 52 AUDIO
    TITLE "0:"
    INDEX 01 01:23:27
  TRACK 53 AUDIO
    TITLE "4:cjc173_1746"
    INDEX 01 01:23:49
  TRACK 54 AUDIO
    TITLE "0:"
    INDEX 01 01:26:67
  TRACK 55 AUDIO
    TITLE "5:cjc173_1747"
    INDEX 01 01:27:13
  TRACK 56 AUDIO
    TITLE "0:"
    INDEX 01 01:31:35
  TRACK 57 AUDIO
    TITLE "3:cjc173_1748"
    INDEX 01 01:32:07
  TRACK 58 AUDIO
    TITLE "0:"
    INDEX 01 01:33:18
  TRACK 59 AUDIO
    TITLE "4:cjc173_1749"
    INDEX 01 01:33:39
  TRACK 60 AUDIO
    TITLE "0:"
    INDEX 01 01:36:14
  TRACK 61 AUDIO
    TITLE "5:cjc173_1750"
    INDEX 01 01:36:34
  TRACK 62 AUDIO
    TITLE "0:"
    INDEX 01 01:41:15
